G04 MADE WITH FRITZING*
G04 WWW.FRITZING.ORG*
G04 DOUBLE SIDED*
G04 HOLES PLATED*
G04 CONTOUR ON CENTER OF CONTOUR VECTOR*
%ASAXBY*%
%FSLAX23Y23*%
%MOIN*%
%OFA0B0*%
%SFA1.0B1.0*%
%ADD10C,0.039370*%
%ADD11C,0.075000*%
%ADD12C,0.078000*%
%ADD13C,0.165354*%
%ADD14C,0.062992*%
%ADD15C,0.393700*%
%ADD16R,0.062992X0.062992*%
%ADD17C,0.024000*%
%ADD18C,0.048000*%
%ADD19C,0.032000*%
%LNCOPPER0*%
G90*
G70*
G54D10*
X2970Y1274D03*
X2890Y1304D03*
X920Y2144D03*
X990Y2114D03*
G54D11*
X3310Y1314D03*
X3410Y1314D03*
X560Y1284D03*
X460Y1284D03*
X560Y1404D03*
X460Y1404D03*
X560Y1764D03*
X460Y1764D03*
X560Y1644D03*
X460Y1644D03*
X560Y1524D03*
X460Y1524D03*
X3310Y1794D03*
X3410Y1794D03*
X3310Y1434D03*
X3410Y1434D03*
X3310Y1554D03*
X3410Y1554D03*
X3310Y1674D03*
X3410Y1674D03*
G54D10*
X950Y1474D03*
X950Y1634D03*
X800Y1714D03*
X950Y1554D03*
X800Y1634D03*
X800Y1554D03*
X950Y1714D03*
X800Y1474D03*
X3080Y1774D03*
X3080Y1854D03*
X3080Y1934D03*
X3080Y1694D03*
X2930Y1934D03*
X2930Y1854D03*
X2930Y1774D03*
X2930Y1694D03*
X2090Y1694D03*
X2090Y1234D03*
X3080Y974D03*
X1790Y1724D03*
X1790Y2194D03*
X890Y2434D03*
X2680Y1904D03*
X1201Y1514D03*
G54D12*
X1860Y2874D03*
X1860Y2774D03*
X1860Y2874D03*
X1860Y2774D03*
X1960Y2774D03*
X1960Y2874D03*
G54D13*
X3630Y2204D03*
X2970Y194D03*
X860Y194D03*
X210Y2204D03*
X1910Y3444D03*
G54D10*
X1170Y1884D03*
X2710Y1784D03*
X1170Y1804D03*
X2710Y1704D03*
X1170Y1724D03*
X2710Y1624D03*
X1170Y1644D03*
X2710Y1544D03*
X1540Y1964D03*
X2340Y1544D03*
X1540Y1874D03*
X2340Y1454D03*
X2260Y1694D03*
X1610Y1724D03*
G54D11*
X2680Y2574D03*
X2280Y2574D03*
X1200Y844D03*
X1600Y844D03*
X2680Y2474D03*
X2280Y2474D03*
X1200Y944D03*
X1600Y944D03*
X2680Y2374D03*
X2280Y2374D03*
X1200Y1044D03*
X1600Y1044D03*
X2680Y2274D03*
X2280Y2274D03*
X1200Y1144D03*
X1600Y1144D03*
X2680Y2174D03*
X2280Y2174D03*
X1200Y1244D03*
X1600Y1244D03*
X2680Y2074D03*
X2280Y2074D03*
X1200Y1344D03*
X1600Y1344D03*
G54D14*
X2880Y2572D03*
X2880Y2474D03*
X1000Y845D03*
X1000Y944D03*
X2080Y2476D03*
X2080Y2574D03*
X1800Y942D03*
X1800Y844D03*
G54D12*
X2180Y774D03*
X2280Y774D03*
X2380Y774D03*
X2480Y774D03*
X2580Y774D03*
X1700Y2644D03*
X1600Y2644D03*
X1500Y2644D03*
X1400Y2644D03*
X1300Y2644D03*
X2180Y874D03*
X2280Y874D03*
X2380Y874D03*
X2480Y874D03*
X2580Y874D03*
X1700Y2544D03*
X1600Y2544D03*
X1500Y2544D03*
X1400Y2544D03*
X1300Y2544D03*
X3080Y1074D03*
X3080Y1174D03*
X3080Y1274D03*
X3080Y1374D03*
X3080Y1474D03*
X3080Y1574D03*
X800Y2344D03*
X800Y2244D03*
X800Y2144D03*
X800Y2044D03*
X800Y1944D03*
X800Y1844D03*
G54D11*
X2880Y2251D03*
X3136Y2251D03*
X2880Y2074D03*
X3136Y2074D03*
X1000Y1167D03*
X744Y1167D03*
X1000Y1344D03*
X744Y1344D03*
G54D15*
X2400Y444D03*
X1400Y444D03*
G54D12*
X1990Y1674D03*
X1990Y1774D03*
X1890Y1674D03*
X1890Y1774D03*
X3360Y1944D03*
X3360Y2044D03*
X500Y2044D03*
X500Y1944D03*
G54D16*
X2880Y2572D03*
X1000Y845D03*
X2080Y2476D03*
X1800Y942D03*
G54D17*
X2970Y1413D02*
X2970Y1293D01*
D02*
X3010Y1475D02*
X2970Y1413D01*
D02*
X3050Y1474D02*
X3010Y1475D01*
D02*
X3001Y2004D02*
X2940Y2075D01*
D02*
X3001Y1573D02*
X3001Y2004D01*
D02*
X2890Y1393D02*
X3001Y1573D01*
D02*
X2940Y2075D02*
X2909Y2074D01*
D02*
X2890Y1323D02*
X2890Y1393D01*
D02*
X860Y1945D02*
X830Y1944D01*
D02*
X920Y2025D02*
X860Y1945D01*
D02*
X920Y2125D02*
X920Y2025D01*
D02*
X991Y2023D02*
X880Y1874D01*
D02*
X880Y1874D02*
X880Y1415D01*
D02*
X880Y1415D02*
X940Y1345D01*
D02*
X940Y1345D02*
X971Y1344D01*
D02*
X990Y2095D02*
X991Y2023D01*
D02*
X2726Y1555D02*
X2914Y1683D01*
D02*
X2726Y1635D02*
X2914Y1763D01*
D02*
X2726Y1715D02*
X2914Y1843D01*
D02*
X2726Y1795D02*
X2914Y1923D01*
D02*
X3200Y1434D02*
X3110Y1694D01*
D02*
X3110Y1694D02*
X3099Y1694D01*
D02*
X3281Y1434D02*
X3200Y1434D01*
D02*
X3231Y1554D02*
X3130Y1774D01*
D02*
X3130Y1774D02*
X3099Y1774D01*
D02*
X3281Y1554D02*
X3231Y1554D01*
D02*
X3269Y1674D02*
X3140Y1853D01*
D02*
X3140Y1853D02*
X3099Y1854D01*
D02*
X3281Y1674D02*
X3269Y1674D01*
D02*
X3310Y1843D02*
X3120Y1934D01*
D02*
X3120Y1934D02*
X3099Y1934D01*
D02*
X3310Y1822D02*
X3310Y1843D01*
D02*
X965Y1725D02*
X1155Y1872D01*
D02*
X965Y1645D02*
X1155Y1792D01*
D02*
X965Y1565D02*
X1155Y1712D01*
D02*
X965Y1485D02*
X1155Y1632D01*
D02*
X2090Y1253D02*
X2090Y1675D01*
D02*
X3179Y975D02*
X3309Y1193D01*
D02*
X3309Y1193D02*
X3310Y1285D01*
D02*
X3099Y974D02*
X3179Y975D01*
D02*
X589Y1285D02*
X760Y1475D01*
D02*
X760Y1475D02*
X781Y1474D01*
D02*
X589Y1285D02*
X589Y1285D01*
D02*
X584Y1419D02*
X784Y1544D01*
D02*
X586Y1536D02*
X783Y1626D01*
D02*
X587Y1652D02*
X782Y1708D01*
D02*
X630Y2345D02*
X719Y2434D01*
D02*
X640Y1934D02*
X630Y2345D01*
D02*
X560Y1823D02*
X640Y1934D01*
D02*
X719Y2434D02*
X871Y2434D01*
D02*
X560Y1792D02*
X560Y1823D01*
D02*
X1790Y2175D02*
X1790Y1743D01*
G54D18*
D02*
X1819Y2874D02*
X1100Y2874D01*
D02*
X3450Y1943D02*
X3489Y2083D01*
D02*
X3489Y2083D02*
X3119Y2675D01*
D02*
X3119Y2675D02*
X2929Y2675D01*
D02*
X2929Y2675D02*
X2831Y2864D01*
D02*
X2831Y2864D02*
X2001Y2873D01*
D02*
X1100Y2874D02*
X839Y2523D01*
D02*
X839Y2523D02*
X551Y2523D01*
D02*
X551Y2523D02*
X421Y2413D01*
D02*
X421Y2413D02*
X409Y1943D01*
D02*
X409Y1943D02*
X459Y1943D01*
D02*
X3401Y1943D02*
X3450Y1943D01*
D02*
X409Y1824D02*
X434Y1794D01*
D02*
X409Y1943D02*
X409Y1824D01*
D02*
X3450Y1824D02*
X3442Y1818D01*
D02*
X3450Y1943D02*
X3450Y1824D01*
G54D19*
D02*
X3259Y2004D02*
X3329Y1962D01*
D02*
X3081Y2004D02*
X3259Y2004D01*
D02*
X2949Y2154D02*
X3081Y2004D01*
D02*
X2830Y2154D02*
X2949Y2154D01*
D02*
X2771Y2063D02*
X2830Y2154D01*
D02*
X2771Y1974D02*
X2771Y2063D01*
D02*
X2699Y1919D02*
X2771Y1974D01*
D02*
X460Y1213D02*
X460Y1250D01*
D02*
X580Y1193D02*
X460Y1213D01*
D02*
X730Y1254D02*
X580Y1193D01*
D02*
X1040Y1254D02*
X730Y1254D01*
D02*
X1101Y1343D02*
X1040Y1254D01*
D02*
X1101Y1455D02*
X1101Y1343D01*
D02*
X1179Y1502D02*
X1101Y1455D01*
G54D17*
D02*
X1611Y2144D02*
X1700Y2213D01*
D02*
X1700Y2213D02*
X1700Y2514D01*
D02*
X1610Y1743D02*
X1611Y2144D01*
D02*
X1171Y2254D02*
X1301Y2404D01*
D02*
X1301Y2404D02*
X1300Y2514D01*
D02*
X1170Y1903D02*
X1171Y2254D01*
D02*
X1230Y1853D02*
X1230Y2234D01*
D02*
X1230Y2234D02*
X1399Y2425D01*
D02*
X1399Y2425D02*
X1400Y2514D01*
D02*
X1185Y1816D02*
X1230Y1853D01*
D02*
X1290Y1824D02*
X1290Y2213D01*
D02*
X1290Y2213D02*
X1499Y2443D01*
D02*
X1499Y2443D02*
X1500Y2514D01*
D02*
X1185Y1736D02*
X1290Y1824D01*
D02*
X1351Y1804D02*
X1351Y2193D01*
D02*
X1351Y2193D02*
X1599Y2463D01*
D02*
X1599Y2463D02*
X1600Y2514D01*
D02*
X1184Y1656D02*
X1351Y1804D01*
D02*
X1540Y944D02*
X1460Y1033D01*
D02*
X1460Y1033D02*
X1460Y1794D01*
D02*
X1460Y1794D02*
X1527Y1860D01*
D02*
X1571Y944D02*
X1540Y944D01*
D02*
X1280Y844D02*
X1410Y1024D01*
D02*
X1410Y1024D02*
X1410Y1824D01*
D02*
X1410Y1824D02*
X1527Y1950D01*
D02*
X1229Y844D02*
X1280Y844D01*
D02*
X2261Y1264D02*
X2179Y1174D01*
D02*
X2179Y1174D02*
X2180Y904D01*
D02*
X2260Y1675D02*
X2261Y1264D01*
D02*
X2581Y993D02*
X2580Y904D01*
D02*
X2711Y1153D02*
X2581Y993D01*
D02*
X2710Y1525D02*
X2711Y1153D01*
D02*
X2480Y963D02*
X2480Y904D01*
D02*
X2651Y1174D02*
X2480Y963D01*
D02*
X2651Y1554D02*
X2651Y1174D01*
D02*
X2698Y1609D02*
X2651Y1554D01*
D02*
X2380Y934D02*
X2380Y904D01*
D02*
X2591Y1194D02*
X2380Y934D01*
D02*
X2591Y1574D02*
X2591Y1194D01*
D02*
X2697Y1690D02*
X2591Y1574D01*
D02*
X2280Y923D02*
X2280Y904D01*
D02*
X2529Y1215D02*
X2280Y923D01*
D02*
X2529Y1593D02*
X2529Y1215D01*
D02*
X2697Y1770D02*
X2529Y1593D01*
D02*
X2429Y1644D02*
X2353Y1558D01*
D02*
X2429Y2404D02*
X2429Y1644D01*
D02*
X2369Y2474D02*
X2429Y2404D01*
D02*
X2309Y2474D02*
X2369Y2474D01*
D02*
X2599Y2574D02*
X2491Y2444D01*
D02*
X2480Y1615D02*
X2352Y1468D01*
D02*
X2491Y2444D02*
X2480Y1615D01*
D02*
X2652Y2574D02*
X2599Y2574D01*
G04 End of Copper0*
M02*