; NON-PLATED HOLES START AT T1
; THROUGH (PLATED) HOLES START AT T100
M48
INCH
T100C0.086614
T101C0.015748
T102C0.031497
T103C0.236220
T104C0.035000
T105C0.038000
%
T100
X002100Y022038
X036300Y022038
X019100Y034438
X029700Y001938
X008599Y001938
T101
X015400Y018738
X017900Y021938
X020900Y012338
X009199Y021438
X009499Y014738
X030800Y016938
X029300Y019338
X029300Y016938
X011700Y016438
X027100Y017038
X015400Y019638
X009499Y016338
X030800Y017738
X029300Y018538
X030800Y009738
X027100Y015438
X017900Y017238
X007999Y016338
X023400Y014538
X009499Y017138
X011700Y017238
X030800Y019338
X012005Y015141
X022600Y016938
X007999Y015538
X011700Y018038
X030800Y018538
X007999Y017138
X023400Y015438
X016100Y017238
X027100Y017838
X008899Y024338
X011700Y018838
X007999Y014738
X009899Y021138
X029700Y012738
X026795Y019037
X009499Y015538
X027100Y016238
X020900Y016938
X028900Y013038
X029300Y017738
T102
X028801Y025724
X018000Y008438
X028801Y024740
X018000Y009422
X010000Y009438
X020801Y024755
X010000Y008453
X020801Y025740
T103
X013999Y004438
X023999Y004438
T104
X026801Y024740
X010000Y011666
X022801Y023740
X034100Y015538
X012000Y011438
X034100Y014338
X004600Y012838
X012000Y008438
X004600Y016438
X004600Y017638
X034100Y017938
X031360Y020740
X028801Y022511
X033100Y014338
X022801Y020740
X022801Y022740
X031360Y022511
X005600Y014038
X012000Y013438
X033100Y016738
X016000Y013438
X005600Y017638
X016000Y009438
X016000Y012438
X005600Y016438
X022801Y024740
X026801Y021740
X026801Y023740
X016000Y008438
X012000Y012438
X012000Y010438
X007440Y011666
X005600Y012838
X033100Y015538
X004600Y014038
X034100Y013138
X026801Y020740
X022801Y025740
X016000Y010438
X026801Y025740
X033100Y013138
X028801Y020740
X016000Y011438
X005600Y015238
X012000Y009438
X026801Y022740
X022801Y021740
X007440Y013438
X034100Y016738
X033100Y017938
X010000Y013438
X004600Y015238
T105
X030800Y011738
X030800Y010738
X019600Y028738
X033600Y019438
X025801Y007740
X019900Y017738
X015000Y025438
X024801Y008740
X008000Y018438
X017000Y026438
X033600Y020438
X018600Y027738
X005000Y019438
X008000Y023438
X023801Y007740
X017000Y025438
X015000Y026438
X008000Y021438
X013000Y025438
X019600Y027738
X008000Y020438
X022801Y008740
X030800Y015738
X023801Y008740
X014000Y026438
X019900Y016738
X008000Y019438
X014000Y025438
X025801Y008740
X021801Y007740
X016000Y026438
X018600Y028738
X030800Y014738
X016000Y025438
X022801Y007740
X008000Y022438
X030800Y013738
X005000Y020438
X030800Y012738
X018900Y017738
X021801Y008740
X024801Y007740
X013000Y026438
X018900Y016738
T00
M30
